<svg xmlns="http://www.w3.org/2000/svg" width="48" height="48"><g fill="#fff" transform="translate(8 -1011.362)"><circle cx="16" cy="1035.362" r="24" fill="#ef4c45" fill-rule="evenodd"/><path fill="#df2209" style="line-height:normal;text-indent:0;text-align:start;text-decoration-line:none;text-transform:none;block-progression:tb" d="M29.795 47.266a24 24 0 0 0 .625-.141 24 24 0 0 0 2.277-.756 24 24 0 0 0 2.19-.98 24 24 0 0 0 2.08-1.194 24 24 0 0 0 1.951-1.394 24 24 0 0 0 1.803-1.584 24 24 0 0 0 1.634-1.756 24 24 0 0 0 1.454-1.91 24 24 0 0 0 1.254-2.045 24 24 0 0 0 1.042-2.16 24 24 0 0 0 .823-2.254 24 24 0 0 0 .593-2.324 24 24 0 0 0 .36-2.372A24 24 0 0 0 48 24a24 24 0 0 0-.049-1.39L37.604 12.261c-1.026 1.005-2.592 2.183-4.903 2.084a6.96 6.96 0 0 1-1.037-.125 2.1 2.1 0 0 1-1.023.61l-1.608-1.608c-1.695-.196-3.269-.051-4.472.521-1.227.583-2.1 1.543-2.493 2.998l1.075 1.076c-.075-.009-.146-.025-.221-.033A8.992 8.992 0 0 0 13 26.738a8.964 8.964 0 0 0 2.635 6.366v.001l14.16 14.16z" color="#000" font-family="sans-serif" font-weight="400" transform="translate(-8 1011.362)"/><path style="line-height:normal;text-indent:0;text-align:start;text-decoration-line:none;text-transform:none;block-progression:tb" d="M27.604 4.773c-.398 1.463-1.147 2.981-2.432 4.1-.305.266-.076.877.328.877.814 0 2.15-.187 3.314-.69-.143.965-.289 2.005-.626 2.876-.22.566-.49 1.044-.778 1.353-.288.31-.563.451-.91.451-.583 0-1.07.145-1.426.412-.356.268-.574.672-.574 1.088 0 .417.218.819.574 1.086.212.16.551.179.848.246-.338 3.215-1.263 5.227-2.371 6.328-.917.912-1.943 1.27-2.89 1.329A9.93 9.93 0 0 0 22 19.25c0-5.494-4.446-9.959-9.932-9.996.393-1.455 1.266-2.415 2.493-2.998 1.203-.572 2.777-.717 4.472-.522.002.72.241 1.345.785 1.569.616.253 1.318-.015 1.846-.57 2.888.565 4.767-.81 5.94-1.96zM12 10.25c4.976 0 9 4.024 9 9s-4.024 9-9 9-9-4.024-9-9 4.024-9 9-9zm2 4.5v1h.793l-2.535 2.535A1.001 1.001 0 0 0 12 18.25a1.02 1.02 0 0 0-.863.5H6.713l.555-.555-.707-.707-1.768 1.768 1.768 1.767.707-.707-.567-.566h4.434c.174.302.516.5.865.5.524 0 1-.476 1-1 0-.087-.012-.174-.035-.258l2.535-2.535v.793h1v-2.5z" color="#000" font-family="sans-serif" font-weight="400" overflow="visible" transform="translate(2 1018.85)"/></g></svg>